<svg width="113" height="42" viewBox="0 0 113 42" fill="none" xmlns="http://www.w3.org/2000/svg">
<path d="M41.2715 1C40.5119 1 39.8962 1.61518 39.8962 2.37405V7.56489H42.0355V3.1374H70.4577V7.56489H72.597V2.37405C72.597 1.61518 71.9812 1 71.2217 1H41.2715Z" fill="#1A9375"/>
<path d="M16.535 16.5444V18.5951H13.5828V34.1298H11.0523V18.5951H8.10007V16.5444H16.535Z" fill="#1A9375"/>
<path fill-rule="evenodd" clip-rule="evenodd" d="M24.5643 16.5444H27.6852C29.4284 16.5444 30.3 17.3684 30.3 19.0165V31.6577C30.3 33.3057 29.4284 34.1298 27.6852 34.1298H24.5643C22.8023 34.1298 21.9213 33.3057 21.9213 31.6577V19.0165C21.9213 17.3684 22.8023 16.5444 24.5643 16.5444ZM27.7696 31.2644V19.4098C27.7696 19.0727 27.7133 18.8573 27.6009 18.7637C27.4884 18.6513 27.2635 18.5951 26.9261 18.5951H25.2953C24.9579 18.5951 24.733 18.6513 24.6205 18.7637C24.5268 18.8573 24.4799 19.0727 24.4799 19.4098V31.2644C24.4799 31.6015 24.5268 31.8263 24.6205 31.9386C24.733 32.0323 24.9579 32.0791 25.2953 32.0791H26.9261C27.2635 32.0791 27.4884 32.0323 27.6009 31.9386C27.7133 31.8263 27.7696 31.6015 27.7696 31.2644Z" fill="#1A9375"/>
<path fill-rule="evenodd" clip-rule="evenodd" d="M39.5385 16.5444H42.6595C44.4027 16.5444 45.2743 17.3684 45.2743 19.0165V31.6577C45.2743 33.3057 44.4027 34.1298 42.6595 34.1298H39.5385C37.7766 34.1298 36.8956 33.3057 36.8956 31.6577V19.0165C36.8956 17.3684 37.7766 16.5444 39.5385 16.5444ZM42.7438 31.2644V19.4098C42.7438 19.0727 42.6876 18.8573 42.5751 18.7637C42.4627 18.6513 42.2377 18.5951 41.9003 18.5951H40.2696C39.9322 18.5951 39.7072 18.6513 39.5948 18.7637C39.501 18.8573 39.4542 19.0727 39.4542 19.4098V31.2644C39.4542 31.6015 39.501 31.8263 39.5948 31.9386C39.7072 32.0323 39.9322 32.0791 40.2696 32.0791H41.9003C42.2377 32.0791 42.4627 32.0323 42.5751 31.9386C42.6876 31.8263 42.7438 31.6015 42.7438 31.2644Z" fill="#1A9375"/>
<path d="M54.5409 32.0791H58.899V34.1298H52.0104V16.5444H54.5409V32.0791Z" fill="#1A9375"/>
<path fill-rule="evenodd" clip-rule="evenodd" d="M64.4036 16.5444H70.5049C72.2669 16.5444 73.1479 17.3684 73.1479 19.0165V23.483C73.1479 24.4756 72.773 25.0562 72.0232 25.2247C72.773 25.412 73.1479 25.9551 73.1479 26.854V31.6577C73.1479 33.3057 72.2669 34.1298 70.5049 34.1298H64.4036V16.5444ZM70.5893 23.3707V19.3536C70.5893 19.0165 70.5331 18.8011 70.4206 18.7075C70.3081 18.5951 70.0832 18.5389 69.7458 18.5389H66.9341V24.1853H69.7458C70.0832 24.1853 70.3081 24.1385 70.4206 24.0449C70.5331 23.9325 70.5893 23.7078 70.5893 23.3707ZM70.5893 31.3206V26.9945C70.5893 26.6574 70.5331 26.442 70.4206 26.3484C70.3081 26.236 70.0832 26.1798 69.7458 26.1798H66.9341V32.1353H69.7458C70.0832 32.1353 70.3081 32.0884 70.4206 31.9948C70.5331 31.8824 70.5893 31.6577 70.5893 31.3206Z" fill="#1A9375"/>
<path fill-rule="evenodd" clip-rule="evenodd" d="M82.347 16.5444H85.468C87.2112 16.5444 88.0828 17.3684 88.0828 19.0165V31.6577C88.0828 33.3057 87.2112 34.1298 85.468 34.1298H82.347C80.5851 34.1298 79.7041 33.3057 79.7041 31.6577V19.0165C79.7041 17.3684 80.5851 16.5444 82.347 16.5444ZM85.5523 31.2644V19.4098C85.5523 19.0727 85.4961 18.8573 85.3836 18.7637C85.2712 18.6513 85.0462 18.5951 84.7088 18.5951H83.0781C82.7407 18.5951 82.5157 18.6513 82.4033 18.7637C82.3096 18.8573 82.2627 19.0727 82.2627 19.4098V31.2644C82.2627 31.6015 82.3096 31.8263 82.4033 31.9386C82.5157 32.0323 82.7407 32.0791 83.0781 32.0791H84.7088C85.0462 32.0791 85.2712 32.0323 85.3836 31.9386C85.4961 31.8263 85.5523 31.6015 85.5523 31.2644Z" fill="#1A9375"/>
<path d="M99.9643 25.1404L103.732 34.1298H100.92L98.5584 27.444L96.1966 34.1298H93.4693L97.1807 25.1404L93.7224 16.5444H96.534L98.5584 22.865L100.611 16.5444H103.366L99.9643 25.1404Z" fill="#1A9375"/>
<path fill-rule="evenodd" clip-rule="evenodd" d="M3.37527 9.54962C2.61572 9.54962 2 10.1648 2 10.9237V39.626C2 40.3848 2.61571 41 3.37526 41H109.118C109.877 41 110.493 40.3848 110.493 39.626V10.9237C110.493 10.1648 109.877 9.54962 109.118 9.54962H3.37527ZM4.1393 38.8626V11.687H108.354V38.8626H4.1393Z" fill="#1A9375"/>
</svg>
